<?xml version="1.0"?>
<svg version="1.1" xmlns="http://www.w3.org/2000/svg" width="190px" height="36px" style=""><path fill="#f50519" d="M42.8,31.8l0-15l-0.9,2.25l-4.65,9.45l-2.4,0.15l-4.65-9.75l-0.75-2.1l0,15l2.85,0.6l0,1.8l-8.1,0l0-1.8l2.55-0.6l0-16.2l-2.55-0.6l0-1.65l6.75-0.15l5.43,12l5.67-11.85l6.3-0.15l0,1.8l-2.55,0.6l0,16.2l2.55,0.6l0,1.8l-8.4,0l0-1.8z M54.758,13.35c0-1.35,0.9-2.1,1.95-2.1c1.2,0,1.95,0.6,1.95,2.1c0,1.35-1.05,2.1-1.95,2.1c-1.2,0-1.95-0.75-1.95-2.1z M60.608,32.55l0,1.65l-7.8,0l0-1.65l2.55-0.75l0-11.1l-2.55-0.6l0-1.65l5.55-0.15l0,13.5z M72.566,24.3l2.25-3.78l-1.35-0.42l0-1.65l6.6-0.15l0,1.8l-2.13,0.36l-0.03,0l-3.09,4.59l3.87,6.75l0.03,0l2.25,0.75l0,1.65l-4.05,0l-4.29-7.65l-2.61,0l0,5.25l1.95,0.75l0,1.65l-7.5,0l0-1.65l2.55-0.75l0-18.3l-2.55-0.6l0-1.65l5.55-0.15l0,13.2l2.55,0z M86.324,13.35c0-1.35,0.9-2.1,1.95-2.1c1.2,0,1.95,0.6,1.95,2.1c0,1.35-1.05,2.1-1.95,2.1c-1.2,0-1.95-0.75-1.95-2.1z M92.174,32.55l0,1.65l-7.8,0l0-1.65l2.55-0.75l0-11.1l-2.55-0.6l0-1.65l5.55-0.15l0,13.5z M97.682,22.95l-0.15-3.75s3.3-1.2,5.85-1.2c3.48,0,5.55,1.2,5.55,4.65l0,9.15l2.4,0.6l0,1.65l-4.65,0.15l-0.63-2.1c-1.02,1.02-2.82,2.4-4.92,2.4c-2.85,0-4.5-1.65-4.5-4.5c0-3.45,2.7-4.65,6.9-4.65l2.4,0l0-2.4c0-1.8-1.05-2.7-2.85-2.7s-3.03,0.45-3.03,0.45l-0.42,2.25l-1.95,0z M105.932,27.3l-2.1,0c-3,0-4.14,0.75-4.14,2.55c0,1.35,0.84,2.25,2.19,2.25c2.25,0,4.05-2.4,4.05-2.4l0-2.4z"/><path fill="#" d=""/></svg>
